<?xml version="1.0" standalone="no"?>
<!DOCTYPE svg PUBLIC "-//W3C//DTD SVG 20010904//EN"
 "http://www.w3.org/TR/2001/REC-SVG-20010904/DTD/svg10.dtd">
<svg version="1.0" xmlns="http://www.w3.org/2000/svg"
 width="1536.000000pt" height="1024.000000pt" viewBox="0 0 1536.000000 1024.000000"
 preserveAspectRatio="xMidYMid meet">

<g transform="translate(0.000000,1024.000000) scale(0.100000,-0.100000)"
fill="#ffffff" stroke="none">
<path d="M11298 9465 c-186 -35 -339 -116 -460 -243 -125 -131 -212 -301 -352
-692 -264 -731 -372 -1005 -634 -1596 -255 -576 -484 -1027 -850 -1674 -359
-635 -771 -1250 -1302 -1945 -197 -257 -411 -530 -416 -530 -2 0 -30 37 -63
83 -34 45 -109 139 -168 208 -326 382 -353 421 -353 503 0 52 17 81 107 188
136 163 197 301 192 432 -4 70 -9 88 -60 193 -115 235 -475 730 -1189 1638
-175 223 -848 1068 -1479 1857 -119 150 -125 153 -233 134 -90 -15 -292 -119
-494 -253 -266 -177 -358 -284 -387 -451 -10 -60 -9 -74 11 -136 12 -37 40
-96 63 -131 42 -65 345 -464 574 -755 396 -504 579 -740 1406 -1805 173 -223
451 -585 619 -805 283 -370 597 -767 973 -1229 l154 -190 -29 -67 c-46 -109
-71 -232 -65 -316 10 -137 90 -254 216 -316 63 -31 71 -32 186 -32 106 1 129
4 195 29 41 15 98 41 126 57 l51 29 64 -53 c136 -113 258 -266 319 -401 44
-97 60 -176 60 -306 0 -90 4 -124 19 -155 55 -118 184 -141 264 -46 53 63 70
133 71 281 1 147 -10 210 -65 366 -54 156 -144 309 -279 477 l-68 86 206 188
c286 260 868 838 1146 1138 460 496 858 970 1197 1425 620 832 1152 1745 1450
2488 118 292 249 739 293 1000 44 263 42 488 -8 684 -81 321 -301 550 -601
628 -106 28 -302 35 -407 15z m318 -106 c216 -40 392 -179 498 -394 133 -268
138 -601 16 -1080 -233 -915 -830 -2049 -1680 -3190 -495 -664 -1060 -1305
-1767 -2006 -461 -456 -768 -730 -968 -864 -284 -190 -493 -234 -627 -132 -59
45 -87 105 -94 202 -9 106 16 198 100 370 87 177 190 327 472 685 970 1232
1553 2162 2162 3450 278 587 500 1116 778 1850 223 588 260 674 340 797 100
152 269 266 456 307 78 17 234 20 314 5z m-7481 -1542 c103 -106 341 -398
1120 -1372 782 -978 1192 -1512 1413 -1839 101 -150 127 -200 137 -268 12 -85
-9 -120 -277 -456 -148 -185 -185 -238 -203 -289 l-11 -32 -57 79 c-86 119
-295 387 -437 560 -239 292 -775 1002 -862 1142 -188 302 -287 663 -249 905
21 131 36 153 170 261 47 38 45 52 -5 52 -47 0 -96 -22 -122 -55 l-22 -28 0
67 c0 36 -9 110 -21 163 -63 292 -217 550 -419 702 -182 137 -345 170 -487 99
-143 -72 -203 -269 -104 -344 22 -17 -2 -25 -30 -9 -45 26 -50 28 -62 16 -9
-10 -5 -19 21 -42 18 -16 41 -29 51 -29 14 0 20 -10 24 -45 13 -92 88 -185
179 -219 59 -23 110 -10 169 43 43 38 44 39 47 115 4 76 4 76 -31 111 -33 33
-41 36 -83 33 -40 -3 -51 -8 -74 -38 -15 -19 -31 -48 -35 -65 -6 -28 -6 -29
13 -12 43 39 112 2 112 -61 0 -47 -46 -92 -93 -92 -108 0 -167 177 -105 311
75 163 268 170 459 16 70 -57 183 -205 248 -327 93 -176 136 -345 146 -572 l5
-123 -20 85 c-49 210 -95 304 -190 394 -92 87 -154 116 -245 116 -80 0 -180
-23 -207 -47 -37 -33 -10 -94 47 -109 15 -4 71 3 126 15 158 33 213 26 285
-41 77 -71 150 -250 168 -413 l5 -50 -20 40 c-28 53 -77 104 -116 121 -40 17
-115 18 -131 2 -15 -15 -16 -62 -1 -91 17 -33 71 -87 87 -87 10 0 12 8 7 33
-8 35 -8 36 -6 55 2 22 50 12 85 -18 46 -41 61 -76 86 -210 30 -159 90 -337
159 -474 33 -64 57 -116 56 -116 -2 0 -39 51 -82 113 -42 61 -114 162 -158
222 -45 61 -139 193 -210 295 -146 210 -522 710 -635 845 -156 186 -201 245
-225 297 -69 147 8 299 202 401 138 72 256 85 393 42 l25 -7 -24 26 c-102 110
-312 80 -553 -81 -79 -53 -153 -129 -174 -178 -18 -44 -18 -128 1 -191 16 -55
89 -154 490 -669 132 -170 346 -447 475 -615 252 -328 575 -736 961 -1215 133
-165 290 -363 349 -440 92 -119 582 -738 670 -845 l29 -35 0 56 c1 70 31 171
68 224 26 38 74 99 317 400 58 71 116 152 130 179 l26 50 0 -34 c-1 -110 -47
-204 -206 -415 -214 -285 -245 -346 -252 -488 -4 -83 -2 -91 31 -160 19 -39
62 -108 95 -152 69 -92 395 -480 412 -490 7 -4 19 -1 27 8 14 13 11 21 -27 71
-56 77 -67 109 -46 141 21 32 49 32 75 -1 26 -34 27 -51 0 -59 -26 -8 -20 -29
10 -33 53 -8 86 69 56 129 -29 57 -147 169 -178 169 -2 0 -2 -11 1 -25 5 -29
-13 -55 -39 -55 -36 0 -288 315 -289 361 0 31 23 44 50 29 25 -13 32 -37 17
-61 -11 -18 -8 -24 21 -48 36 -31 93 -51 138 -50 l29 0 -25 17 c-54 36 -102
90 -150 167 -53 84 -57 97 -36 133 12 23 13 22 48 -30 19 -29 94 -122 166
-205 229 -268 289 -344 350 -444 l22 -36 -64 -97 c-34 -53 -81 -128 -102 -166
-21 -38 -42 -68 -47 -67 -8 2 -162 191 -495 608 -255 318 -353 445 -764 979
-145 190 -320 417 -388 505 -68 88 -216 279 -329 425 -420 544 -1051 1352
-1216 1560 -94 118 -227 289 -296 379 -68 90 -145 191 -171 225 -61 79 -82
146 -76 240 11 163 106 267 418 453 237 140 280 161 335 162 37 1 45 -4 120
-82z m-51 -328 c174 -64 368 -267 470 -490 39 -86 93 -246 101 -304 4 -28 -4
-14 -28 50 -107 286 -271 498 -455 587 -81 40 -93 43 -172 43 -99 0 -143 -13
-207 -62 l-46 -35 6 46 c11 81 47 135 112 169 44 24 152 22 219 -4z m3887
-5732 c196 -225 298 -408 340 -612 42 -202 9 -405 -66 -405 -43 0 -52 26 -58
160 -7 149 -22 211 -87 347 -67 141 -137 239 -244 340 -85 80 -89 86 -71 99
10 8 26 14 34 14 19 0 191 -176 275 -281 73 -90 97 -116 74 -79 -8 14 -28 48
-43 75 -46 81 -138 215 -198 290 -52 65 -55 71 -40 87 24 27 34 23 84 -35z"/>
<path d="M11353 9260 c-134 -24 -278 -104 -370 -205 -101 -109 -132 -179 -444
-977 -359 -921 -588 -1446 -931 -2133 -544 -1086 -1129 -2001 -1883 -2945
-351 -438 -463 -595 -535 -745 -107 -222 -129 -410 -56 -488 13 -14 42 -31 65
-37 52 -14 104 6 148 58 27 31 35 35 50 26 10 -6 22 -20 28 -32 16 -37 37 -29
171 59 199 131 629 523 1134 1035 657 665 1063 1127 1572 1784 449 581 961
1392 1225 1940 297 616 479 1126 559 1565 26 144 26 459 0 570 -75 326 -290
520 -586 531 -52 1 -118 -1 -147 -6z m345 -89 c46 -24 132 -97 132 -113 0 -5
-17 5 -38 22 -54 43 -131 70 -201 70 -68 0 -107 -12 -174 -53 -38 -23 -64 -31
-118 -35 -38 -3 -69 -1 -69 4 0 9 124 76 215 116 58 26 194 20 253 -11z m-30
-67 c24 -7 30 -24 8 -24 -8 0 -43 -14 -79 -30 -63 -30 -108 -33 -123 -9 -9 16
6 46 29 57 24 12 129 15 165 6z m92 -75 c101 -23 169 -102 171 -198 2 -63 -16
-87 -55 -77 -25 6 -26 9 -20 59 6 48 4 56 -22 86 -27 32 -29 33 -85 27 -86
-10 -153 29 -129 74 20 38 63 47 140 29z m-715 -64 c-66 -164 -53 -381 27
-452 12 -10 19 -13 16 -8 -2 6 -13 28 -23 50 -29 61 -28 195 3 253 36 68 97
127 157 153 60 27 69 39 28 39 -25 1 -26 2 -9 12 33 19 117 2 226 -46 131 -58
198 -102 280 -185 139 -141 208 -355 180 -562 -22 -162 -97 -331 -206 -464
-163 -197 -479 -335 -869 -380 -77 -8 -149 -18 -160 -21 -19 -5 -19 -4 -1 7
10 6 77 26 150 45 249 64 406 164 475 304 30 62 61 193 48 206 -3 3 -14 1 -25
-5 -24 -13 -62 11 -62 39 0 27 47 60 85 60 42 0 79 -30 98 -79 31 -77 -15
-176 -143 -303 -43 -42 -103 -93 -134 -113 -31 -21 -56 -39 -56 -41 0 -9 85
35 176 93 88 55 116 80 184 162 107 128 148 213 157 318 3 45 3 92 -1 106 -9
37 -52 85 -97 107 -52 27 -62 26 -56 -7 12 -59 12 -66 0 -70 -22 -8 -63 43
-63 77 0 56 51 124 101 135 60 13 161 -58 194 -138 19 -47 22 -173 5 -237 -23
-86 -91 -202 -160 -271 -36 -36 -78 -76 -95 -88 l-30 -23 39 22 c209 115 361
424 305 623 -20 74 -120 158 -204 172 -80 13 -78 12 -54 53 51 88 110 105 183
54 66 -46 135 -201 138 -310 2 -63 18 -30 18 36 -2 200 -26 261 -163 408 -103
110 -175 147 -293 152 -142 7 -238 -38 -283 -131 -30 -63 -27 -114 10 -170 37
-57 34 -89 -12 -113 -41 -21 -81 -5 -120 49 -91 125 -100 302 -22 437 31 55
74 113 79 108 2 -2 -7 -31 -21 -63z m968 -257 c23 -99 14 -205 -17 -195 -35
11 -69 154 -47 196 16 29 57 28 64 -1z m-586 1 c20 -8 24 -13 13 -17 -37 -12
-38 -22 -4 -56 19 -19 34 -42 34 -51 0 -26 -64 -85 -93 -85 -37 0 -90 41 -101
77 -11 41 6 84 46 118 32 27 61 31 105 14z m-472 -253 c36 -21 118 -106 102
-106 -3 0 -44 11 -93 26 -48 14 -110 30 -136 35 -51 11 -59 26 -30 51 39 35
90 33 157 -6z m410 -6 c18 -8 18 -9 2 -9 -48 -2 -94 -101 -47 -101 13 0 22 -9
26 -27 13 -50 -68 -91 -131 -67 -38 15 -59 110 -34 156 23 42 131 71 184 48z
m-343 -144 c58 -28 108 -84 146 -164 32 -66 36 -85 40 -176 7 -159 -43 -308
-138 -410 -43 -47 -126 -96 -162 -96 -28 0 -22 9 40 69 69 68 114 135 143 210
41 110 23 321 -33 380 -34 37 8 25 52 -15 48 -44 52 -31 7 28 -84 111 -207
144 -304 81 -30 -20 -55 -77 -47 -108 9 -36 20 -39 54 -13 29 21 33 21 73 8
32 -11 46 -24 60 -52 16 -33 16 -40 4 -71 -56 -134 -237 -98 -287 57 -15 47
-8 109 21 175 39 92 98 123 219 118 44 -2 90 -11 112 -21z m-347 -496 c47 -29
70 -89 69 -176 -2 -104 -44 -186 -128 -251 -34 -27 -56 -30 -33 -5 49 54 82
213 58 284 -6 19 -25 48 -41 63 -36 34 -38 68 -8 89 29 21 44 20 83 -4z m1215
-90 c-27 -124 -89 -207 -173 -232 -52 -16 -92 -1 -92 32 0 20 12 30 65 57 81
42 149 113 181 189 20 49 25 55 28 34 1 -14 -2 -50 -9 -80z m-940 80 c19 -10
40 -59 40 -94 0 -41 -48 -123 -111 -190 -57 -61 -133 -115 -146 -103 -7 8 14
44 67 118 71 98 90 140 90 200 0 38 5 55 18 65 21 16 19 16 42 4z m-417 -230
c36 -29 52 -81 37 -125 -19 -57 -57 -93 -144 -137 -44 -22 -91 -49 -103 -61
-40 -36 -35 -12 8 41 22 29 66 71 97 95 44 33 58 51 65 80 11 47 1 59 -22 28
-35 -46 -79 -3 -51 49 10 18 59 48 81 50 4 0 18 -9 32 -20z m1053 -175 c41
-14 86 -25 99 -25 34 0 32 -11 -15 -80 -69 -102 -128 -114 -270 -54 -214 91
-250 103 -330 118 l-85 15 130 -5 c172 -7 267 -21 342 -51 51 -20 65 -22 84
-13 21 12 20 13 -17 30 -22 10 -54 30 -73 44 -19 14 -42 26 -50 27 -12 0 -10
3 4 9 37 16 106 10 181 -15z m-419 -171 c69 -52 128 -162 157 -291 21 -93 21
-279 0 -381 -37 -183 -137 -374 -259 -498 -66 -67 -97 -89 -175 -127 -179 -88
-370 -102 -504 -38 -137 66 -247 210 -290 376 -69 273 -22 533 140 761 85 120
218 215 343 244 98 23 255 -7 361 -68 59 -34 154 -124 184 -176 114 -195 40
-466 -151 -553 -76 -35 -185 -43 -249 -18 -126 48 -198 193 -146 295 52 104
220 63 222 -53 0 -44 -57 -97 -106 -98 l-39 0 55 -26 c80 -38 162 -38 218 0
84 55 142 170 142 280 -1 83 -24 131 -96 195 -68 60 -90 68 -44 15 73 -82 99
-203 62 -286 -16 -37 -26 -47 -44 -47 -50 0 -59 33 -28 101 38 84 17 163 -60
233 -96 87 -233 117 -366 81 -35 -9 -64 -20 -64 -24 0 -3 41 -5 90 -3 140 5
237 -38 271 -119 11 -28 10 -33 -6 -45 -31 -23 -55 -16 -94 25 -20 21 -45 43
-56 49 -82 40 -239 6 -334 -73 -58 -49 -151 -246 -151 -318 1 -29 2 -28 19 20
65 181 249 300 359 233 28 -17 33 -25 30 -52 -3 -29 -7 -33 -52 -44 -132 -34
-240 -116 -287 -219 -69 -152 -58 -282 38 -446 40 -69 89 -114 163 -148 47
-22 71 -26 165 -27 l110 -3 -80 9 c-104 12 -214 65 -261 127 -70 92 -103 245
-67 312 23 44 58 70 105 77 30 5 41 2 62 -19 31 -31 34 -77 7 -101 -19 -17
-21 -17 -50 0 -36 21 -56 9 -63 -36 -4 -29 5 -40 17 -20 13 22 27 9 22 -19
-12 -56 20 -131 78 -188 67 -65 123 -84 256 -84 146 0 236 38 336 143 38 40
103 133 103 149 0 4 -35 -28 -77 -71 -126 -125 -211 -154 -355 -122 -78 18
-121 48 -132 95 -12 46 1 65 33 48 21 -12 31 2 11 14 -17 10 -12 72 6 79 34
13 59 5 79 -27 28 -44 68 -61 145 -60 95 0 169 32 239 102 102 103 146 217
157 411 10 177 -37 328 -133 426 -42 44 -48 59 -9 27 20 -17 20 -17 6 0 -7 10
-35 30 -62 43 -26 13 -48 26 -48 29 0 9 114 -46 147 -71z m46 30 c29 -15 90
-54 136 -88 l85 -61 75 0 c83 -1 99 -12 87 -58 -9 -38 -47 -45 -107 -19 -27
11 -49 20 -49 19 0 -1 13 -28 29 -59 41 -81 50 -170 23 -232 -17 -36 -26 -46
-45 -46 -24 0 -25 1 -29 119 -4 117 -5 122 -46 203 -49 98 -105 166 -176 214
-61 41 -55 44 17 8z m-277 -552 c-10 -2 -22 2 -27 10 -16 24 -9 29 18 11 23
-15 24 -18 9 -21z m-940 -189 c1 -161 43 -336 103 -439 29 -49 13 -41 -39 20
-25 29 -55 60 -68 70 -22 17 -23 17 -43 -8 -34 -43 -129 -47 -129 -6 0 10 18
31 39 47 57 40 67 64 91 204 18 108 40 209 44 209 0 0 1 -44 2 -97z m-29 -523
c70 -31 96 -95 77 -189 -4 -17 -19 -45 -34 -61 -36 -39 -95 -42 -136 -7 -22
19 -26 29 -20 51 4 16 16 30 26 33 29 8 25 47 -6 72 -38 30 -77 27 -116 -8
-31 -27 -33 -34 -33 -94 0 -58 4 -70 31 -104 54 -67 67 -70 337 -78 274 -8
329 -1 455 55 40 18 71 34 69 36 -2 2 -44 -5 -93 -16 -95 -21 -204 -25 -268
-10 -77 17 -122 74 -98 122 6 13 12 34 14 48 2 19 10 26 30 28 22 3 31 -4 52
-36 l25 -39 131 -13 c140 -13 225 -9 330 17 104 25 231 95 314 172 l38 36 -38
-55 c-70 -102 -172 -217 -236 -267 -109 -86 -348 -247 -476 -322 -143 -84
-220 -153 -302 -271 -32 -47 -80 -115 -105 -151 -34 -49 -47 -78 -52 -116 -16
-143 75 -261 180 -232 64 17 109 96 69 118 -31 17 -39 14 -51 -19 -11 -34 -26
-37 -59 -14 -59 41 6 164 86 164 29 0 97 -54 112 -89 30 -73 -11 -170 -86
-206 -47 -22 -139 -23 -179 -2 -43 22 -101 86 -120 129 -21 52 -20 198 3 263
10 28 39 82 65 120 25 39 58 87 71 107 46 69 119 119 451 311 220 128 295 179
374 256 42 40 65 67 51 59 -14 -8 -83 -50 -155 -93 -257 -155 -372 -195 -566
-195 -271 0 -412 48 -470 162 -71 139 0 281 166 334 57 18 94 16 142 -6z
m-351 -395 l27 -25 -25 0 c-14 0 -40 3 -57 6 -30 6 -31 8 -15 25 23 25 38 24
70 -6z m1164 -23 c0 -4 -39 -46 -86 -92 -112 -110 -232 -254 -255 -305 -12
-25 -19 -64 -19 -103 0 -90 -25 -126 -71 -101 -34 18 -41 55 -24 121 29 116
97 200 305 379 114 99 150 123 150 101z m-510 -88 c-52 -17 -131 -29 -325 -49
-77 -8 -157 -19 -178 -25 -53 -16 -103 -63 -114 -108 -11 -48 -42 -55 -72 -16
-11 15 -21 33 -21 40 0 44 -110 -24 -136 -83 -34 -82 4 -221 72 -264 77 -47
172 -30 200 37 8 20 14 48 12 63 -2 22 -8 26 -33 26 -25 0 -30 -4 -27 -22 6
-41 -78 -61 -98 -24 -24 47 -7 102 40 126 39 20 63 19 109 -5 115 -58 83 -238
-51 -295 -95 -39 -229 4 -287 92 -41 62 -54 114 -49 193 9 128 105 256 220
297 63 21 232 25 348 6 79 -13 304 -3 365 16 17 5 39 9 50 9 11 0 0 -6 -25
-14z m-197 -120 c-45 -26 -123 -84 -175 -129 -51 -46 -94 -82 -95 -81 -6 5 18
122 29 143 18 36 53 53 172 83 154 39 163 37 69 -16z m286 -82 c-35 -37 -79
-96 -98 -130 -31 -59 -33 -69 -30 -140 l4 -77 -28 -3 c-32 -4 -82 40 -92 81
-16 61 93 201 221 287 42 27 78 50 81 50 3 0 -23 -30 -58 -68z m-1109 -252 c6
-21 27 -60 46 -86 42 -55 54 -90 54 -158 0 -63 -18 -120 -46 -151 -26 -28 -42
-31 -66 -12 -15 11 -15 18 9 87 l25 74 -17 101 c-9 55 -18 101 -19 102 -1 1
-19 -41 -40 -95 -21 -53 -47 -107 -58 -118 -22 -24 -95 -60 -104 -51 -3 3 12
29 33 59 64 89 92 136 128 214 19 40 36 74 39 74 3 0 10 -18 16 -40z m524
-122 c-19 -53 -19 -168 0 -231 28 -94 110 -197 156 -197 17 0 20 -7 20 -39 0
-23 -8 -48 -19 -62 -17 -21 -21 -22 -49 -10 -66 27 -98 98 -133 289 -24 135
-22 188 11 252 27 52 33 51 14 -2z m486 -48 c-6 -12 -14 -19 -17 -17 -2 3 1
15 7 27 6 12 14 19 17 17 2 -3 -1 -15 -7 -27z m-593 -204 c12 -407 -80 -703
-295 -952 -140 -164 -357 -274 -536 -274 -133 1 -309 61 -366 127 -39 44 -68
102 -76 150 -8 52 19 157 53 205 52 75 182 136 260 122 27 -5 51 -20 85 -55
71 -72 87 -154 42 -208 -34 -41 -85 -43 -110 -6 -19 29 -12 58 11 49 20 -8 19
15 -2 38 -51 57 -190 -17 -224 -120 -23 -69 20 -151 100 -192 151 -77 420 -33
576 94 24 19 15 17 -47 -13 -143 -70 -347 -95 -446 -56 -51 21 -109 86 -118
132 -8 45 -1 49 29 19 102 -102 324 -98 545 10 80 39 110 60 177 128 52 53 93
105 117 151 127 243 170 414 194 769 10 142 26 81 31 -118z m-57 58 c-14 -162
-41 -255 -118 -408 -89 -180 -267 -283 -424 -246 -146 35 -232 120 -257 257
-26 138 106 286 240 270 69 -8 116 -32 139 -69 l20 -33 -21 -18 c-27 -21 -40
-18 -56 14 -18 36 -42 49 -88 49 -53 0 -102 -32 -133 -85 -33 -57 -27 -139 14
-197 58 -83 184 -124 287 -94 58 17 177 98 185 126 3 10 -3 8 -19 -7 -47 -42
-111 -67 -182 -71 -90 -6 -150 12 -198 58 -33 31 -39 43 -39 79 0 77 43 126
90 101 14 -7 20 -21 20 -44 0 -19 9 -45 22 -61 21 -27 23 -27 102 -23 68 4 92
10 151 40 82 43 151 107 161 151 7 37 79 269 96 310 6 15 12 26 15 24 2 -2 -1
-57 -7 -123z m-136 52 c23 -76 20 -115 -11 -177 -30 -58 -80 -99 -120 -99 -35
0 -42 29 -12 51 70 52 83 66 100 103 12 27 19 65 19 109 0 37 2 67 4 67 3 0
12 -24 20 -54z m291 -391 c48 -91 51 -150 12 -218 -15 -26 -34 -47 -41 -47
-22 0 -26 38 -8 85 14 39 15 55 4 128 -12 85 -15 134 -8 126 2 -2 21 -35 41
-74z m-974 -210 c15 -22 30 -56 34 -75 l8 -35 -34 33 c-25 24 -42 32 -70 32
-53 0 -61 26 -21 73 24 27 53 17 83 -28z m604 -129 c-61 -120 -163 -200 -290
-226 -87 -18 -145 9 -145 69 0 11 -17 33 -37 50 -39 33 -40 37 -1 22 13 -5 87
-6 165 -2 l140 7 82 53 c45 30 87 63 92 73 6 11 13 17 16 14 3 -3 -7 -30 -22
-60z m-934 -556 c38 -16 98 -34 132 -41 34 -6 78 -15 97 -19 19 -4 -81 -7
-227 -6 l-263 1 0 26 c0 48 36 67 128 68 49 1 79 -6 133 -29z m719 -10 c-114
-97 -313 -158 -588 -180 -230 -18 -389 -53 -478 -105 -62 -36 -139 -127 -163
-190 -54 -144 -62 -295 -21 -363 43 -70 134 -95 167 -46 22 34 56 47 88 32 57
-26 34 -114 -39 -151 -73 -38 -193 0 -248 78 -57 81 -85 291 -53 400 34 121
110 222 223 299 122 83 260 116 497 116 134 0 307 16 395 36 36 8 103 34 150
58 103 52 116 55 70 16z m-152 -152 c-2 -7 -62 -52 -134 -100 -150 -101 -195
-141 -223 -197 -28 -53 -27 -60 9 -67 62 -13 20 -74 -51 -74 -49 0 -71 27 -77
95 -5 58 12 97 62 144 31 29 375 211 399 211 10 0 17 -6 15 -12z m-666 -122
c-85 -32 -135 -67 -177 -124 -28 -38 -35 -56 -35 -96 0 -51 13 -70 111 -151
20 -17 41 -40 47 -52 18 -34 14 -90 -10 -141 l-22 -47 -7 68 c-6 75 -31 112
-101 148 l-37 19 6 -34 c4 -26 0 -39 -16 -55 -28 -28 -63 -26 -101 6 -32 27
-32 27 -28 103 10 164 126 293 321 356 93 30 131 30 49 0z m204 -19 c-84 -47
-99 -70 -105 -169 -4 -46 -10 -89 -14 -95 -13 -20 -43 -15 -76 13 l-31 26 -21
-26 c-25 -32 -61 -34 -90 -5 -24 24 -20 46 19 103 41 60 115 107 232 148 132
46 163 48 86 5z m-790 -342 c10 -15 23 -79 34 -163 17 -134 30 -175 73 -233
22 -31 34 -135 22 -196 -8 -38 -8 -38 -24 37 -16 73 -62 170 -81 170 -5 0 -35
24 -67 53 -77 71 -93 80 -115 60 -22 -19 -39 -13 -58 21 -13 24 -12 29 8 49
18 18 33 22 75 21 29 -1 68 -9 85 -18 29 -15 33 -15 38 -1 9 23 -16 74 -45 93
-57 35 -64 65 -26 106 30 33 60 33 81 1z m702 -33 c4 -27 -30 -84 -62 -106
l-25 -15 6 57 c6 76 8 80 35 85 35 6 43 3 46 -21z m-957 -338 c24 -12 30 -21
27 -42 -2 -20 -9 -28 -28 -30 -14 -2 -30 -8 -37 -13 -8 -7 -20 1 -38 26 -45
58 -81 37 -56 -32 12 -32 11 -37 -10 -59 -28 -30 -35 -30 -54 0 -14 21 -14 28
-2 58 8 18 30 50 50 71 29 31 41 37 76 37 23 0 56 -7 72 -16z m181 -41 c25
-23 23 -67 -6 -100 -23 -26 -25 -27 -43 -11 -10 9 -26 30 -36 47 -18 31 -18
31 7 56 29 29 52 32 78 8z m377 -39 c42 -9 39 -26 -10 -66 -23 -18 -60 -49
-82 -68 -30 -25 -39 -30 -33 -16 4 11 14 43 23 70 26 81 40 92 102 80z m-275
-30 c9 -23 7 -54 -3 -54 -9 0 -21 33 -21 58 0 17 17 15 24 -4z m-202 -63 c49
-54 49 -124 1 -181 -56 -67 -134 -75 -195 -21 -63 56 -44 172 36 223 48 30
121 20 158 -21z m-288 -27 c10 -4 16 -18 16 -36 0 -27 -3 -29 -24 -24 -17 4
-26 1 -30 -10 -5 -13 -9 -14 -21 -4 -18 15 -19 34 -5 61 11 19 35 24 64 13z
m465 -28 c11 -24 12 -41 3 -90 -17 -91 -45 -125 -179 -222 -51 -37 -113 19
-79 71 10 14 24 29 33 32 20 8 48 -26 33 -41 -16 -16 -12 -26 10 -26 17 0 20
7 20 50 0 50 0 50 28 44 15 -4 31 -13 35 -21 13 -21 23 -15 22 14 0 22 -7 30
-30 37 -16 6 -31 11 -33 12 -2 1 3 12 10 24 11 18 19 20 51 16 28 -5 39 -3 43
9 8 20 -12 43 -39 47 -16 2 -23 11 -25 32 -4 34 12 47 53 44 22 -2 34 -11 44
-32z m-461 -78 c9 -9 5 -19 -20 -45 -30 -31 -31 -34 -15 -50 16 -16 17 -16 17
0 0 20 16 23 22 5 4 -10 10 -10 31 -1 34 16 52 -4 43 -48 -6 -30 6 -59 25 -59
4 0 14 12 21 28 20 42 42 35 46 -15 2 -33 -1 -44 -20 -57 -35 -24 -64 -20 -90
15 -37 49 -62 73 -96 91 -38 20 -49 56 -33 109 9 30 17 39 34 39 13 0 28 -5
35 -12z m-48 -248 c25 -13 42 -67 30 -91 -13 -23 -41 -39 -69 -39 -48 0 -77
70 -51 121 12 21 58 26 90 9z"/>
<path d="M11726 8440 c26 -27 49 -48 52 -46 7 8 -28 65 -50 80 -47 33 -48 14
-2 -34z"/>
<path d="M7449 2265 c-2 -19 -3 -24 -17 -58 -10 -24 -8 -33 14 -67 26 -39 52
-55 40 -25 -7 18 5 20 22 3 9 -9 12 -9 12 1 0 8 7 10 20 6 15 -5 18 -3 14 9
-3 9 -1 16 5 16 11 0 8 61 -4 92 -7 18 -32 31 -45 23 -5 -3 -12 0 -15 5 -5 7
-12 5 -22 -7 -13 -17 -14 -17 -9 0 3 9 1 17 -4 17 -6 0 -11 -7 -11 -15z"/>
<path d="M4220 7025 c-7 -9 -14 -35 -14 -58 -1 -41 -1 -42 32 -39 18 1 46 -5
63 -14 50 -26 156 -141 216 -236 31 -49 57 -87 59 -85 2 2 -9 39 -25 84 -71
202 -170 320 -297 357 -13 4 -26 1 -34 -9z"/>
<path d="M4781 6722 c-1 -55 2 -73 12 -70 26 9 30 52 9 99 l-20 44 -1 -73z"/>
<path d="M4947 6549 c21 -42 10 -85 -38 -152 -54 -76 -69 -124 -69 -222 0
-105 10 -181 21 -163 5 7 9 29 9 48 0 45 49 147 86 181 72 67 139 85 198 54
15 -8 30 -15 32 -15 10 0 -42 74 -69 96 -25 21 -39 25 -79 22 -40 -2 -47 0
-41 12 17 35 8 97 -20 134 -34 44 -51 47 -30 5z"/>
<path d="M4186 6504 c-13 -34 -5 -67 23 -95 35 -35 75 -38 131 -9 41 21 60 46
60 79 0 32 -20 35 -49 7 -35 -34 -62 -33 -104 4 -39 34 -52 37 -61 14z"/>
<path d="M5050 6153 c-100 -51 -146 -167 -143 -358 6 -353 160 -594 1068
-1670 51 -60 139 -169 196 -242 57 -73 105 -131 107 -129 5 6 -62 136 -132
254 -136 229 -176 330 -176 442 0 88 28 143 90 178 56 31 109 25 152 -19 37
-36 37 -92 1 -97 -26 -4 -28 -10 -9 -34 19 -25 89 -23 144 3 116 57 108 228
-17 387 -55 69 -102 92 -189 92 l-69 0 -7 59 c-8 67 -35 111 -70 111 -35 0
-36 -7 -9 -68 32 -74 27 -121 -18 -168 -36 -37 -34 -54 3 -30 12 8 45 20 71
27 41 10 58 9 113 -6 87 -24 177 -83 215 -142 26 -42 30 -55 26 -101 -4 -52
-29 -101 -57 -110 -9 -3 -8 2 3 19 24 34 21 69 -11 120 -39 60 -59 76 -127 99
-139 48 -241 9 -295 -112 -51 -115 -33 -238 60 -415 33 -62 57 -113 55 -113
-8 0 -144 178 -168 221 -45 78 -67 155 -67 239 0 143 29 240 92 307 33 34 30
53 -7 53 -30 0 -86 -71 -112 -142 -9 -27 -21 -48 -25 -48 -15 0 -8 44 18 115
40 113 39 105 12 105 -49 0 -76 -52 -80 -153 -3 -78 -11 -97 -22 -54 -3 13
-35 73 -72 133 -89 146 -110 189 -129 265 -33 126 1 232 91 285 97 57 194 35
222 -51 26 -78 -14 -165 -75 -165 -42 0 -60 14 -44 34 8 9 21 16 30 16 11 1 8
5 -9 15 -57 33 -90 5 -90 -74 0 -66 27 -96 94 -106 92 -14 155 20 176 96 15
50 12 158 -5 216 -16 53 -70 118 -112 134 -51 19 -135 11 -203 -22 -77 -36
-96 -52 -121 -100 -46 -92 -46 -198 3 -347 21 -66 18 -89 -7 -56 -68 86 -169
272 -205 374 -28 78 -38 220 -20 274 26 81 90 126 177 126 89 0 183 -68 183
-132 0 -31 0 -31 21 -12 31 28 22 102 -17 151 -44 54 -87 73 -164 73 -195 0
-320 -188 -265 -399 24 -92 85 -229 145 -324 29 -46 120 -169 204 -274 141
-179 241 -325 234 -343 -5 -13 -265 299 -390 467 -137 184 -255 415 -284 555
-10 45 -14 101 -11 146 4 64 2 72 -14 72 -10 0 -27 -12 -38 -27 -12 -14 -23
-24 -25 -22 -9 8 25 144 42 173 10 17 40 44 67 61 42 26 57 30 114 28 36 -1
79 -3 95 -5 24 -2 33 3 45 24 20 34 6 60 -55 107 -64 49 -128 53 -204 14z"/>
<path d="M5367 5658 c-44 -26 -87 -104 -87 -157 0 -42 36 -196 51 -220 8 -12
9 -8 5 19 -6 49 13 189 31 225 9 17 26 42 40 57 29 30 37 91 13 95 -8 2 -32
-7 -53 -19z"/>
<path d="M6095 4426 c-34 -34 -41 -87 -20 -144 35 -93 255 -461 255 -426 0 5
-11 49 -25 99 -28 101 -32 179 -11 229 37 88 164 115 198 41 10 -22 8 -30 -11
-55 -19 -27 -20 -31 -6 -37 25 -9 68 29 84 74 13 37 13 43 -5 73 -28 48 -66
72 -123 78 -113 11 -220 -95 -221 -220 l-1 -43 -25 48 c-35 68 -41 135 -19
202 17 50 18 55 2 79 -22 32 -41 33 -72 2z"/>
</g>
</svg>
