<?xml version="1.0" encoding="utf-8"?>
<svg xmlns="http://www.w3.org/2000/svg" viewBox="0 0 500 500" xmlns:bx="https://boxy-svg.com">
  <defs>
    <bx:export>
      <bx:file format="png" href="#object-0"/>
    </bx:export>
  </defs>
  <path d="M 428.019 25.848 C 426.018 32.511 412.917 44.944 402.479 50.275 C 386.934 58.272 360.726 63.156 321.415 65.82 C 218.37 72.484 176.84 86.475 135.976 127.784 C 121.097 142.662 114.88 151.101 107.105 166.646 C 107.105 166.646 99.298 179.36 97.111 186.411 C 93.289 198.735 93.286 202.66 94.378 216.88 C 95.391 230.071 97.335 234.606 103.775 243.933 C 113.767 257.925 124.873 263.477 143.75 263.477 C 155.519 263.477 161.959 262.144 170.402 258.148 C 181.727 252.814 203.046 232.385 205.712 224.39 C 207.266 219.058 237.691 209.066 241.467 212.619 C 243.687 214.839 238.581 231.716 223.923 270.138 C 219.925 280.576 215.039 293.68 212.818 299.23 C 209.042 309.668 209.042 309.668 188.611 316.775 C 149.523 330.102 121.986 348.09 90.449 379.849 C 64.242 406.275 53.583 425.82 52.029 449.138 C 50.919 467.794 53.583 476.899 62.244 482.451 C 70.461 487.781 90.005 487.559 102.665 481.785 C 113.991 476.899 135.976 459.132 149.967 444.032 C 155.076 438.257 160.407 432.483 161.959 430.927 C 172.62 420.267 208.378 354.309 220.369 323.438 C 222.146 319.219 224.589 315 225.699 314.11 C 227.033 313.223 238.135 312.334 250.571 312.334 C 275.445 312.334 290.77 315.889 302.096 324.329 C 309.202 329.433 316.53 329.88 319.419 325.215 C 321.415 322.108 314.086 317.443 298.098 311.891 C 286.105 307.673 278.999 306.783 256.345 306.783 C 237.467 306.783 229.251 306.116 229.251 304.34 C 229.251 301.229 241.911 259.035 252.35 227.945 C 259.679 205.068 259.232 205.514 280.776 200.404 L 286.773 199.071 L 280.329 211.509 C 275.224 221.281 273.668 226.831 273.668 237.05 C 273.668 245.266 274.556 250.151 276.11 250.151 C 277.889 250.151 278.333 247.264 277.221 241.712 C 274.334 223.277 286.327 202.627 304.762 194.187 C 310.758 191.521 315.863 188.413 315.863 187.525 C 315.863 184.415 308.092 185.525 288.327 191.299 C 269.449 196.851 262.566 197.96 262.566 195.741 C 262.566 195.073 265.674 183.973 269.449 170.645 C 277.221 144.662 290.103 117.122 305.205 94.692 L 314.977 80.255 L 342.737 76.483 C 382.933 70.708 401.811 64.489 419.801 50.943 C 426.907 45.612 435.791 31.178 435.791 24.735 C 435.791 19.85 429.572 20.515 428.019 25.848 Z M 306.981 82.479 C 306.981 83.144 302.096 89.585 296.098 96.913 C 283.218 112.901 266.34 146.881 254.792 179.305 L 246.575 202.847 L 233.471 206.623 C 212.598 212.397 211.93 212.175 213.26 198.85 C 213.927 190.631 213.706 187.744 211.708 188.855 C 210.375 189.746 209.264 193.297 209.264 196.851 C 209.264 207.509 205.49 214.617 199.714 214.617 C 193.276 214.617 185.947 219.726 187.722 222.835 C 188.611 224.168 191.719 224.611 195.052 223.946 C 200.381 223.057 200.602 223.277 198.38 227.72 C 193.495 236.604 175.063 252.373 165.069 255.704 C 131.091 267.251 103.775 251.262 101.109 218.616 C 98.888 192.632 110.882 164.87 135.532 138.887 C 165.735 106.686 209.487 88.694 270.336 83.59 C 296.765 81.368 306.981 81.146 306.981 82.479 Z M 202.6 321.217 C 202.6 324.771 181.28 371.41 170.402 391.397 C 139.309 449.138 106.662 481.118 78.679 481.118 C 42.035 481.118 47.144 432.703 88.451 388.066 C 114.88 359.861 145.746 339.206 181.727 325.662 C 201.493 318.331 202.6 318.108 202.6 321.217 Z" fill="#D4AF37" stroke="none" style="stroke-width: 0.1;" id="object-0"/>
</svg>