<?xml version="1.0" standalone="no"?>
<!DOCTYPE svg PUBLIC "-//W3C//DTD SVG 20010904//EN"
 "http://www.w3.org/TR/2001/REC-SVG-20010904/DTD/svg10.dtd">
<svg version="1.0" xmlns="http://www.w3.org/2000/svg"
 width="256" height="256" viewBox="0 0 256 256"
 preserveAspectRatio="xMidYMid meet">

<rect width="256" height="256" fill="#0A0A0A"/>

<g transform="translate(128,128) scale(0.15,-0.15) translate(-320,213.5)"
fill="#D4AF37" stroke="none">
<path d="M4437 3515 c-79 -61 -150 -180 -233 -393 -43 -109 -144 -415 -144
-436 0 -5 -9 -40 -21 -78 -20 -67 -21 -69 -39 -53 -48 44 -126 -34 -217 -216
-34 -68 -81 -145 -103 -171 -45 -52 -76 -64 -67 -25 3 12 11 50 17 84 7 42 34
110 80 200 92 185 178 375 233 514 72 182 146 410 149 459 3 42 1 45 -23 48
-36 4 -72 -41 -142 -177 -111 -213 -180 -393 -267 -696 -95 -330 -101 -343
-183 -432 -69 -75 -140 -97 -153 -48 -11 44 4 69 67 110 100 66 169 161 169
233 0 68 -39 81 -110 33 -23 -15 -58 -48 -77 -72 -39 -50 -96 -164 -112 -225
-8 -30 -28 -57 -72 -99 -56 -53 -63 -57 -74 -41 -16 21 -7 58 60 244 38 107
45 135 35 147 -19 23 -45 2 -68 -57 -79 -205 -107 -323 -83 -352 28 -34 111
-6 146 48 26 39 43 39 79 1 19 -19 41 -35 50 -35 36 0 90 32 150 90 l63 60 12
-40 c14 -47 22 -53 61 -45 20 4 46 27 82 71 l52 65 16 -43 c22 -61 49 -62 103
-6 23 24 52 59 64 78 20 30 23 31 28 14 15 -48 32 -69 57 -72 40 -5 112 76
177 198 63 117 58 117 117 -5 43 -87 46 -144 9 -180 -29 -30 -45 -31 -79 -4
-27 21 -35 14 -13 -13 33 -42 119 -18 150 42 27 53 17 117 -37 232 -25 54 -46
104 -46 112 0 45 53 102 84 90 8 -3 16 -18 18 -32 l3 -27 13 23 c19 32 0 62
-39 62 -66 0 -123 -52 -134 -123 -10 -60 -110 -258 -154 -306 -66 -71 -76 -54
-50 84 38 210 31 194 157 334 169 185 173 191 223 256 134 178 190 302 197
436 3 66 1 93 -12 117 -33 64 -99 71 -169 17z m139 -16 c16 -18 19 -36 18
-108 -1 -144 -67 -283 -224 -478 -101 -125 -246 -280 -254 -273 -3 3 8 53 24
110 107 392 196 602 300 709 67 68 102 78 136 40z m-550 -241 c-47 -155 -155
-433 -225 -582 -32 -67 -66 -138 -76 -159 -32 -68 -28 -31 10 95 86 289 164
496 247 663 85 170 99 165 44 -17z"/>
</g>
</svg>
