<?xml version="1.0" standalone="no"?>
<!DOCTYPE svg PUBLIC "-//W3C//DTD SVG 20010904//EN"
 "http://www.w3.org/TR/2001/REC-SVG-20010904/DTD/svg10.dtd">
<svg version="1.0" xmlns="http://www.w3.org/2000/svg"
 width="640.000000pt" height="427.000000pt" viewBox="0 0 640.000000 427.000000"
 preserveAspectRatio="xMidYMid meet">

<g transform="translate(0.000000,427.000000) scale(0.100000,-0.100000)"
fill="#000000" stroke="none">
<path d="M4437 3515 c-79 -61 -150 -180 -233 -393 -43 -109 -144 -415 -144
-436 0 -5 -9 -40 -21 -78 -20 -67 -21 -69 -39 -53 -48 44 -126 -34 -217 -216
-34 -68 -81 -145 -103 -171 -45 -52 -76 -64 -67 -25 3 12 11 50 17 84 7 42 34
110 80 200 92 185 178 375 233 514 72 182 146 410 149 459 3 42 1 45 -23 48
-36 4 -72 -41 -142 -177 -111 -213 -180 -393 -267 -696 -95 -330 -101 -343
-183 -432 -69 -75 -140 -97 -153 -48 -11 44 4 69 67 110 100 66 169 161 169
233 0 68 -39 81 -110 33 -23 -15 -58 -48 -77 -72 -39 -50 -96 -164 -112 -225
-8 -30 -28 -57 -72 -99 -56 -53 -63 -57 -74 -41 -16 21 -7 58 60 244 38 107
45 135 35 147 -19 23 -45 2 -68 -57 -79 -205 -107 -323 -83 -352 28 -34 111
-6 146 48 26 39 43 39 79 1 19 -19 41 -35 50 -35 36 0 90 32 150 90 l63 60 12
-40 c14 -47 22 -53 61 -45 20 4 46 27 82 71 l52 65 16 -43 c22 -61 49 -62 103
-6 23 24 52 59 64 78 20 30 23 31 28 14 15 -48 32 -69 57 -72 40 -5 112 76
177 198 63 117 58 117 117 -5 43 -87 46 -144 9 -180 -29 -30 -45 -31 -79 -4
-27 21 -35 14 -13 -13 33 -42 119 -18 150 42 27 53 17 117 -37 232 -25 54 -46
104 -46 112 0 45 53 102 84 90 8 -3 16 -18 18 -32 l3 -27 13 23 c19 32 0 62
-39 62 -66 0 -123 -52 -134 -123 -10 -60 -110 -258 -154 -306 -66 -71 -76 -54
-50 84 38 210 31 194 157 334 169 185 173 191 223 256 134 178 190 302 197
436 3 66 1 93 -12 117 -33 64 -99 71 -169 17z m139 -16 c16 -18 19 -36 18
-108 -1 -144 -67 -283 -224 -478 -101 -125 -246 -280 -254 -273 -3 3 8 53 24
110 107 392 196 602 300 709 67 68 102 78 136 40z m-550 -241 c-47 -155 -155
-433 -225 -582 -32 -67 -66 -138 -76 -159 -32 -68 -28 -31 10 95 86 289 164
496 247 663 85 170 99 165 44 -17z m-22 -746 c8 -23 -11 -76 -59 -172 -44 -87
-92 -160 -105 -160 -16 0 -11 71 9 143 40 140 135 254 155 189z m-479 -72 c11
-35 -39 -123 -102 -179 -61 -55 -73 -60 -73 -35 0 36 105 216 132 227 25 10
37 7 43 -13z"/>
<path d="M3615 3130 c-9 -30 -68 -86 -115 -110 -70 -36 -188 -58 -365 -70
-464 -30 -651 -93 -835 -279 -67 -67 -95 -105 -130 -175 l-45 -89 0 -107 c0
-104 1 -110 30 -152 45 -63 95 -88 180 -88 53 0 82 6 120 24 51 24 147 116
159 152 7 24 144 69 161 53 10 -10 -13 -86 -79 -259 -18 -47 -40 -106 -50
-131 -17 -47 -17 -47 -109 -79 -176 -60 -300 -141 -442 -284 -118 -119 -166
-207 -173 -312 -5 -84 7 -125 46 -150 37 -24 125 -23 182 3 51 22 150 102 213
170 23 26 47 52 54 59 48 48 209 345 263 484 8 19 19 38 24 42 6 4 56 8 112 8
112 0 181 -16 232 -54 32 -23 65 -25 78 -4 9 14 -24 35 -96 60 -54 19 -86 23
-188 23 -85 0 -122 3 -122 11 0 14 57 204 104 344 33 103 31 101 128 124 l27
6 -29 -56 c-23 -44 -30 -69 -30 -115 0 -37 4 -59 11 -59 8 0 10 13 5 38 -13
83 41 176 124 214 27 12 50 26 50 30 0 14 -35 9 -124 -17 -85 -25 -116 -30
-116 -20 0 3 14 53 31 113 35 117 93 241 161 342 l44 65 125 17 c181 26 266
54 347 115 32 24 72 89 72 118 0 22 -28 19 -35 -5z m-545 -255 c0 -3 -22 -32
-49 -65 -58 -72 -134 -225 -186 -371 l-37 -106 -59 -17 c-94 -26 -97 -25 -91
35 3 37 2 50 -7 45 -6 -4 -11 -20 -11 -36 0 -48 -17 -80 -43 -80 -29 0 -62
-23 -54 -37 4 -6 18 -8 33 -5 24 4 25 3 15 -17 -22 -40 -105 -111 -150 -126
-153 -52 -276 20 -288 167 -10 117 44 242 155 359 136 145 333 226 607 249
119 10 165 11 165 5z m-470 -1075 c0 -16 -96 -226 -145 -316 -140 -260 -287
-404 -413 -404 -165 0 -142 218 44 419 119 127 258 220 420 281 89 33 94 34
94 20z"/>
<path d="M3216 2625 c-37 -34 -34 -79 6 -83 20 -2 35 5 53 24 56 60 1 115 -59
59z"/>
</g>
</svg>
