<?xml version="1.0" encoding="utf-8"?>
<svg xmlns="http://www.w3.org/2000/svg" viewBox="0 0 500 500">
  <g transform="matrix(1, 0, 0, 1, -477.799469, 26.541338)">
    <g>
      <g transform="matrix(1, 0, 0, 1, 472.788605, -9.365294)">
        <path d="M 361.043 88.851 C 353.143 94.951 346.043 106.851 337.743 128.151 C 333.443 139.051 323.343 169.651 323.343 171.751 C 323.343 172.251 322.443 175.751 321.243 179.551 C 319.243 186.251 319.143 186.451 317.343 184.851 C 312.543 180.451 304.743 188.251 295.643 206.451 C 292.243 213.251 287.543 220.951 285.343 223.551 C 280.843 228.751 277.743 229.951 278.643 226.051 C 278.943 224.851 279.743 221.051 280.343 217.651 C 281.043 213.451 283.743 206.651 288.343 197.651 C 297.543 179.151 306.143 160.151 311.643 146.251 C 318.843 128.051 326.243 105.251 326.543 100.351 C 326.843 96.151 326.643 95.851 324.243 95.551 C 320.643 95.151 317.043 99.651 310.043 113.251 C 298.943 134.551 292.043 152.551 283.343 182.851 C 273.843 215.851 273.243 217.151 265.043 226.051 C 258.143 233.551 251.043 235.751 249.743 230.851 C 248.643 226.451 250.143 223.951 256.443 219.851 C 266.443 213.251 273.343 203.751 273.343 196.551 C 273.343 189.751 269.443 188.451 262.343 193.251 C 260.043 194.751 256.543 198.051 254.643 200.451 C 250.743 205.451 245.043 216.851 243.443 222.951 C 242.643 225.951 240.643 228.651 236.243 232.851 C 230.643 238.151 229.943 238.551 228.843 236.951 C 227.243 234.851 228.143 231.151 234.843 212.551 C 238.643 201.851 239.343 199.051 238.343 197.851 C 236.443 195.551 233.843 197.651 231.543 203.551 C 223.643 224.051 220.843 235.851 223.243 238.751 C 226.043 242.151 234.343 239.351 237.843 233.951 C 240.443 230.051 242.143 230.051 245.743 233.851 C 247.643 235.751 249.843 237.351 250.743 237.351 C 254.343 237.351 259.743 234.151 265.743 228.351 L 272.043 222.351 L 273.243 226.351 C 274.643 231.051 275.443 231.651 279.343 230.851 C 281.343 230.451 283.943 228.151 287.543 223.751 L 292.743 217.251 L 294.343 221.551 C 296.543 227.651 299.243 227.751 304.643 222.151 C 306.943 219.751 309.843 216.251 311.043 214.351 C 313.043 211.351 313.343 211.251 313.843 212.951 C 315.343 217.751 317.043 219.851 319.543 220.151 C 323.543 220.651 330.743 212.551 337.243 200.351 C 343.543 188.651 343.043 188.651 348.943 200.851 C 353.243 209.551 353.543 215.251 349.843 218.851 C 346.943 221.851 345.343 221.951 341.943 219.251 C 339.243 217.151 338.443 217.851 340.643 220.551 C 343.943 224.751 352.543 222.351 355.643 216.351 C 358.343 211.051 357.343 204.651 351.943 193.151 C 349.443 187.751 347.343 182.751 347.343 181.951 C 347.343 177.451 352.643 171.751 355.743 172.951 C 356.543 173.251 357.343 174.751 357.543 176.151 L 357.843 178.851 L 359.143 176.551 C 361.043 173.351 359.143 170.351 355.243 170.351 C 348.643 170.351 342.943 175.551 341.843 182.651 C 340.843 188.651 330.843 208.451 326.443 213.251 C 319.843 220.351 318.843 218.651 321.443 204.851 C 325.243 183.851 324.543 185.451 337.143 171.451 C 354.043 152.951 354.443 152.351 359.443 145.851 C 372.843 128.051 378.443 115.651 379.143 102.251 C 379.443 95.651 379.243 92.951 377.943 90.551 C 374.643 84.151 368.043 83.451 361.043 88.851 Z M 374.943 90.451 C 376.543 92.251 376.843 94.051 376.743 101.251 C 376.643 115.651 370.043 129.551 354.343 149.051 C 344.243 161.551 329.743 177.051 328.943 176.351 C 328.643 176.051 329.743 171.051 331.343 165.351 C 342.043 126.151 350.943 105.151 361.343 94.451 C 368.043 87.651 371.543 86.651 374.943 90.451 Z M 319.943 114.551 C 315.243 130.051 304.443 157.851 297.443 172.751 C 294.243 179.451 290.843 186.551 289.843 188.651 C 286.643 195.451 287.043 191.751 290.843 179.151 C 299.443 150.251 307.243 129.551 315.543 112.851 C 324.043 95.851 325.443 96.351 319.943 114.551 Z M 317.743 189.151 C 318.543 191.451 316.643 196.751 311.843 206.351 C 307.443 215.051 302.643 222.351 301.343 222.351 C 299.743 222.351 300.243 215.251 302.243 208.051 C 306.243 194.051 315.743 182.651 317.743 189.151 Z M 269.843 196.351 C 270.943 199.851 265.943 208.651 259.643 214.251 C 253.543 219.751 252.343 220.251 252.343 217.751 C 252.343 214.151 262.843 196.151 265.543 195.051 C 268.043 194.051 269.243 194.351 269.843 196.351 Z" fill="#FFFFFF" stroke="none" style="stroke-width: 0.1;"/>
        <path d="M 278.843 127.351 C 277.943 130.351 272.043 135.951 267.343 138.351 C 260.343 141.951 248.543 144.151 230.843 145.351 C 184.443 148.351 165.743 154.651 147.343 173.251 C 140.643 179.951 137.843 183.751 134.343 190.751 L 130.899 197.383 C 130.899 197.383 129.293 201.69 128.891 204.054 C 127.667 211.256 129.943 221.351 132.843 225.551 C 137.343 231.851 142.343 234.351 150.843 234.351 C 156.143 234.351 159.043 233.751 162.843 231.951 C 167.943 229.551 177.543 220.351 178.743 216.751 C 179.443 214.351 193.143 209.851 194.843 211.451 C 195.843 212.451 193.543 220.051 186.943 237.351 C 185.143 242.051 182.943 247.951 181.943 250.451 C 180.243 255.151 180.243 255.151 171.043 258.351 C 153.443 264.351 141.043 272.451 126.843 286.751 C 115.043 298.651 110.243 307.451 109.543 317.951 C 109.043 326.351 110.243 330.451 114.143 332.951 C 117.843 335.351 126.643 335.251 132.343 332.651 C 137.443 330.451 147.343 322.451 153.643 315.651 C 155.943 313.051 158.343 310.451 159.043 309.751 C 163.843 304.951 179.943 275.251 185.343 261.351 C 186.143 259.451 187.243 257.551 187.743 257.151 C 188.343 256.751 193.343 256.351 198.943 256.351 C 210.143 256.351 217.043 257.951 222.143 261.751 C 225.343 264.051 228.643 264.251 229.943 262.151 C 230.843 260.751 227.543 258.651 220.343 256.151 C 214.943 254.251 211.743 253.851 201.543 253.851 C 193.043 253.851 189.343 253.551 189.343 252.751 C 189.343 251.351 195.043 232.351 199.743 218.351 C 203.043 208.051 202.843 208.251 212.543 205.951 L 215.243 205.351 L 212.343 210.951 C 210.043 215.351 209.343 217.851 209.343 222.451 C 209.343 226.151 209.743 228.351 210.443 228.351 C 211.243 228.351 211.443 227.051 210.943 224.551 C 209.643 216.251 215.043 206.951 223.343 203.151 C 226.043 201.951 228.343 200.551 228.343 200.151 C 228.343 198.751 224.843 199.251 215.943 201.851 C 207.443 204.351 204.343 204.851 204.343 203.851 C 204.343 203.551 205.743 198.551 207.443 192.551 C 210.943 180.851 216.743 168.451 223.543 158.351 L 227.943 151.851 L 240.443 150.151 C 258.543 147.551 267.043 144.751 275.143 138.651 C 278.343 136.251 282.343 129.751 282.343 126.851 C 282.343 124.651 279.543 124.951 278.843 127.351 Z M 224.343 152.851 C 224.343 153.151 222.143 156.051 219.443 159.351 C 213.643 166.551 206.043 181.851 200.843 196.451 L 197.143 207.051 L 191.243 208.751 C 181.843 211.351 181.543 211.251 182.143 205.251 C 182.443 201.551 182.343 200.251 181.443 200.751 C 180.843 201.151 180.343 202.751 180.343 204.351 C 180.343 209.151 178.643 212.351 176.043 212.351 C 173.143 212.351 169.843 214.651 170.643 216.051 C 171.043 216.651 172.443 216.851 173.943 216.551 C 176.343 216.151 176.443 216.251 175.443 218.251 C 173.243 222.251 164.943 229.351 160.443 230.851 C 145.143 236.051 132.843 228.851 131.643 214.151 C 130.643 202.451 136.043 189.951 147.143 178.251 C 160.743 163.751 180.443 155.651 207.843 153.351 C 219.743 152.351 224.343 152.251 224.343 152.851 Z M 177.343 260.351 C 177.343 261.951 167.743 282.951 162.843 291.951 C 148.843 317.951 134.143 332.351 121.543 332.351 C 105.043 332.351 107.343 310.551 125.943 290.451 C 137.843 277.751 151.743 268.451 167.943 262.351 C 176.843 259.051 177.343 258.951 177.343 260.351 Z" fill="#FFFFFF" stroke="none" style="stroke-width: 0.1;"/>
        <path d="M 238.943 177.851 C 235.243 181.251 235.543 185.751 239.543 186.151 C 241.543 186.351 243.043 185.651 244.843 183.751 C 250.443 177.751 244.943 172.251 238.943 177.851 Z" fill="#FFFFFF" stroke="none" style="stroke-width: 0.1;"/>
      </g>
    </g>
  </g>
</svg>